<?xml version="1.0" standalone="no"?>
<!DOCTYPE svg PUBLIC "-//W3C//DTD SVG 20010904//EN"
 "http://www.w3.org/TR/2001/REC-SVG-20010904/DTD/svg10.dtd">
<svg version="1.0" xmlns="http://www.w3.org/2000/svg"
 width="1024.000000pt" height="1024.000000pt" viewBox="0 0 1024.000000 1024.000000"
 preserveAspectRatio="xMidYMid meet">

<!-- Синий фон -->
<rect width="100%" height="100%" fill="#0077FF"/>

<g transform="translate(0.000000,1024.000000) scale(0.100000,-0.100000)"
fill="#FFFFFF" stroke="none">
<path d="M7275 7386 c509 -93 846 -367 984 -800 30 -94 61 -255 61 -321 0 -17

-7 -41 -16 -53 l-15 -22 -374 0 c-436 0 -408 -7 -444 115 -47 161 -155 257
-341 302 -83 20 -304 23 -380 4 -95 -23 -195 -78 -249 -137 -68 -74 -94 -145
-95 -254 -2 -239 142 -338 819 -565 504 -169 638 -232 822 -387 178 -148 284
-325 344 -568 20 -82 23 -121 23 -290 1 -150 -3 -214 -16 -276 -52 -239 -147
-420 -308 -588 -218 -227 -480 -359 -830 -418 -164 -28 -481 -30 -640 -4 -259

42 -473 121 -665 247 -112 73 -287 251 -349 356 -91 155 -145 326 -161 511 -6
70 -5 80 15 105 l21 27 383 0 c323 0 385 -2 403 -15 12 -8 31 -43 43 -79 62

-188 182 -299 385 -358 70 -20 102 -23 255 -23 135 0 190 4 240 18 158 42 267

125 323 245 39 85 49 220 22 303 -64 192 -163 246 -928 505 -443 150 -607 230

-755 369 -192 179 -293 405 -322 720 -52 561 255 1060 770 1254 110 41 252 75

380 91 117 14 490 5 595 -14z"/>
<path d="M3650 7342 c274 -45 462 -101 644 -194 273 -138 476 -319 645 -578 251 -385 368 -870 347 -1442 -10 -290 -42 -495 -110 -720

-206 -679 -699 -1106 -1416 -1227 -209 -35 -353 -41 -1046 -41 l-675 0 -24 25
-25 24 0 2066 0 2066 25 25 25 25 738 -4 c702 -3 743 -4 872 -25z"/>

</g>

<!-- Внутренняя часть буквы D синим цветом -->
<g transform="translate(0.000000,1024.000000) scale(0.100000,-0.100000)"
fill="#0077FF" stroke="none">
<path d="M2892 5239 l3 -1304 230 1 c338 2 535 35 714 120 381 179 569 602
548 1234 -14 404 -95 680 -264 900 -106 136 -237 225 -416 284 -148 48 -232
58 -535 63 l-282 5 2 -1303z"/>
</g>
</svg>